HIERARCHY
ROOT root
{
	OFFSET 0.000000 0.000000 0.000000
	CHANNELS 6 Xposition Yposition Zposition Zrotation Yrotation Xrotation
	JOINT lhip
	{
		OFFSET 0.058581 -0.082280 -0.017664
		CHANNELS 3 Zrotation Yrotation Xrotation
		JOINT lknee
		{
			OFFSET 0.043451 -0.386469 0.008037
			CHANNELS 3 Zrotation Yrotation Xrotation
			JOINT lankle
			{
				OFFSET -0.014790 -0.426874 -0.037428
				CHANNELS 3 Zrotation Yrotation Xrotation
				JOINT ltoe
				{
					OFFSET 0.041054 -0.060286 0.122042
					CHANNELS 3 Zrotation Yrotation Xrotation
					End Site
					{
						OFFSET 0.000000 0.000000 0.000000
					}
				}
			}
		}
	}
	JOINT rhip
	{
		OFFSET -0.060310 -0.090513 -0.013543
		CHANNELS 3 Zrotation Yrotation Xrotation
		JOINT rknee
		{
			OFFSET -0.043257 -0.383688 -0.004843
			CHANNELS 3 Zrotation Yrotation Xrotation
			JOINT rankle
			{
				OFFSET 0.019056 -0.420046 -0.034562
				CHANNELS 3 Zrotation Yrotation Xrotation
				JOINT rtoe
				{
					OFFSET -0.034840 -0.062106 0.130323
					CHANNELS 3 Zrotation Yrotation Xrotation
					End Site
					{
						OFFSET 0.000000 0.000000 0.000000
					}
				}
			}
		}
	}
	JOINT lowerback
	{
		OFFSET 0.004439 0.124404 -0.038385
		CHANNELS 3 Zrotation Yrotation Xrotation
		JOINT upperback
		{
			OFFSET 0.004488 0.137956 0.026820
			CHANNELS 3 Zrotation Yrotation Xrotation
			JOINT chest
			{
				OFFSET -0.002265 0.056032 0.002855
				CHANNELS 3 Zrotation Yrotation Xrotation
				JOINT lowerneck
				{
					OFFSET -0.013390 0.211636 -0.033468
					CHANNELS 3 Zrotation Yrotation Xrotation
					JOINT upperneck
					{
						OFFSET 0.010113 0.088937 0.050410
						CHANNELS 3 Zrotation Yrotation Xrotation
						End Site
						{
							OFFSET 0.000000 0.000000 0.000000
						}
					}
				}
				JOINT lclavicle
				{
					OFFSET 0.071702 0.114000 -0.018898
					CHANNELS 3 Zrotation Yrotation Xrotation
					JOINT lshoulder
					{
						OFFSET 0.122921 0.045205 -0.019046
						CHANNELS 3 Zrotation Yrotation Xrotation
						JOINT lelbow
						{
							OFFSET 0.255332 -0.015649 -0.022946
							CHANNELS 3 Zrotation Yrotation Xrotation
							JOINT lwrist
							{
								OFFSET 0.265709 0.012698 -0.007375
								CHANNELS 3 Zrotation Yrotation Xrotation
								End Site
								{
									OFFSET 0.000000 0.000000 0.000000
								}
							}
						}
					}
				}
				JOINT rclavicle
				{
					OFFSET -0.082954 0.112472 -0.023707
					CHANNELS 3 Zrotation Yrotation Xrotation
					JOINT rshoulder
					{
						OFFSET -0.113228 0.046853 -0.008472
						CHANNELS 3 Zrotation Yrotation Xrotation
						JOINT relbow
						{
							OFFSET -0.260127 -0.014369 -0.031269
							CHANNELS 3 Zrotation Yrotation Xrotation
							JOINT rwrist
							{
								OFFSET -0.269108 0.006794 -0.006027
								CHANNELS 3 Zrotation Yrotation Xrotation
								End Site
								{
									OFFSET 0.000000 0.000000 0.000000
								}
							}
						}
					}
				}
			}
		}
	}
}
MOTION
Frames: 15
Frame Time: 0.033333
-0.058015 -0.400511 0.234193 -135.165216 81.341443 17.986596 -1.809439 -8.493050 -16.373890 -5.798220 -6.610020 25.132885 3.529883 10.532172 5.878734 0.000000 -0.000000 0.000000 0.013195 -5.822292 -0.971650 0.851807 -10.425039 66.855940 3.141367 -3.140158 15.609457 0.000000 -0.000000 0.000000 -0.648906 9.679349 31.777058 7.725348 -9.978378 11.308306 1.044777 -0.637345 -9.010480 -21.905132 21.689559 -5.754665 -8.755888 -11.675667 6.066356 -8.782000 -54.544445 -8.973012 16.493379 -33.061984 -7.709292 -16.460738 -1.657618 -4.682897 -15.354846 -8.618985 26.116327 38.683306 31.791041 12.898867 56.354954 19.373557 30.171924 -42.501147 85.884772 -33.685002 -15.126608 18.134709 -28.366788 
-0.052594 -0.397936 0.233972 -135.596604 80.822054 18.120505 -1.818049 -7.682947 -17.217209 -5.543428 -6.463082 24.753335 3.144970 10.094248 6.273996 0.000000 -0.000000 0.000000 -0.037361 -7.271883 -2.990426 -0.273810 -8.906535 68.423864 5.022940 -2.979109 16.047391 0.000000 -0.000000 0.000000 -0.382235 10.314821 32.289778 7.341492 -9.818073 10.333443 1.096487 -0.685024 -8.247571 -21.774014 21.744256 -7.656904 -8.950884 -11.872424 8.050149 -7.201471 -54.670498 -9.762522 16.438499 -32.708149 -9.227749 -15.612865 -2.130565 -4.838286 -16.615118 -7.245668 26.935316 37.477281 31.839756 11.659922 57.073220 20.305393 29.413244 -30.208061 85.938113 -22.112199 -12.671315 19.789040 -27.475951 
-0.028649 -0.386053 0.237120 -138.966974 80.817964 16.428324 -0.431781 -8.132703 -20.245550 -5.588158 -7.395308 23.725671 2.525861 11.353228 8.997197 0.000000 -0.000000 0.000000 2.078395 -5.279967 -8.668714 -0.628874 -9.528325 72.075510 5.754846 -4.266137 15.277481 0.000000 -0.000000 0.000000 -0.561531 9.685472 36.899470 6.547770 -7.737441 2.555766 1.395336 -0.947960 -2.692446 -20.178102 24.413858 -16.466837 -11.896684 -14.817021 16.435815 3.383389 -51.393973 -17.244620 13.271202 -35.347109 -8.740407 -12.726895 -2.712076 -3.547300 -17.029256 -9.436997 22.823117 33.245209 32.128243 5.862767 60.924320 22.460754 32.063519 -29.945337 84.321167 -20.874298 -10.876833 22.175775 -28.173869 
-0.016643 -0.372949 0.239510 -141.038853 80.983647 15.943991 0.959230 -9.201564 -23.234131 -5.692346 -6.758436 24.323515 2.143507 11.904931 9.904061 0.000000 -0.000000 0.000000 2.804466 -3.562747 -12.673634 -1.289117 -10.892459 74.839899 7.068923 -4.554949 14.818422 0.000000 -0.000000 0.000000 -0.920957 9.678251 37.328561 6.853112 -6.620053 0.537284 1.299784 -1.142017 -0.518250 -19.183854 26.563072 -19.646629 -14.558032 -17.307511 20.031449 6.537640 -48.644563 -19.665814 12.409899 -38.311067 -8.504701 -11.034117 -2.327409 -3.847403 -18.179862 -10.802087 22.870607 32.334350 30.966354 2.606104 61.230013 22.907512 34.706666 -34.170470 84.339078 -24.601837 -11.039332 21.855056 -29.182122 
-0.016734 -0.372945 0.239553 -141.001413 80.977751 15.981305 0.960906 -9.204426 -23.241745 -5.692609 -6.756893 24.326757 2.142582 11.904751 9.903643 0.000000 -0.000000 0.000000 2.809517 -3.566652 -12.673680 -1.290770 -10.900079 74.838090 7.076447 -4.557569 14.825779 0.000000 -0.000000 0.000000 -0.917354 9.673159 37.325836 6.860413 -6.622206 0.536718 1.305199 -1.142906 -0.518162 -19.183636 26.566532 -19.651000 -14.558237 -17.307951 20.033907 6.546450 -48.644605 -19.670740 12.412519 -38.315326 -8.508726 -11.039696 -2.321897 -3.846933 -18.179517 -10.805148 22.870840 32.333293 30.964879 2.604779 61.231302 22.908073 34.708554 -34.165304 84.339047 -24.595930 -11.042814 21.855712 -29.185168 
-0.016920 -0.373113 0.239448 -140.971269 80.970004 16.013242 0.960432 -9.206010 -23.244121 -5.693196 -6.756224 24.328628 2.142080 11.904645 9.903663 0.000000 -0.000000 0.000000 2.815512 -3.572110 -12.671747 -1.291104 -10.906985 74.837416 7.080707 -4.559263 14.830751 0.000000 -0.000000 0.000000 -0.913854 9.665971 37.324088 6.868786 -6.626352 0.535133 1.313041 -1.146523 -0.519622 -19.184288 26.567717 -19.652450 -14.558728 -17.308492 20.034723 6.558782 -48.647397 -19.678349 12.417633 -38.318597 -8.512852 -11.043723 -2.317852 -3.846548 -18.179388 -10.807100 22.871269 32.333029 30.964323 2.604840 61.232211 22.907812 34.709485 -34.158197 84.338942 -24.588371 -11.044224 21.856394 -29.186178 
-0.016478 -0.367384 0.239323 -139.312672 81.607011 18.331859 1.372500 -10.668588 -24.553086 -5.743239 -5.871912 25.121587 1.595903 12.297378 9.579007 0.000000 -0.000000 0.000000 1.863510 -3.262038 -13.834888 -3.363154 -13.064320 75.646536 11.043304 -5.540671 17.180819 0.000000 -0.000000 0.000000 -1.228002 9.563568 36.368719 7.592825 -6.877835 1.470029 1.398433 -1.338083 -1.120147 -19.156793 26.767091 -18.937442 -14.764361 -17.432408 19.355470 5.882311 -47.636675 -18.303454 11.912787 -37.272629 -7.851912 -10.117076 -5.530630 -2.473909 -17.695850 -12.169610 21.779132 32.240567 30.190074 2.047412 61.217092 22.398899 35.412201 -34.181396 84.813382 -23.838965 -10.892764 21.892183 -29.674310 
-0.017479 -0.364743 0.239236 -137.746889 81.568811 20.071427 1.596336 -11.567602 -24.637929 -5.701846 -4.833240 24.984035 1.371166 12.311180 9.549561 0.000000 -0.000000 0.000000 0.996518 -2.870749 -13.938107 -4.230739 -14.061709 76.231576 12.810408 -5.363813 17.709090 0.000000 -0.000000 0.000000 -1.643141 9.640564 36.168942 8.038183 -6.810969 1.933619 1.282023 -1.095717 -1.757300 -18.925516 26.603824 -17.425429 -14.879098 -17.768564 18.350164 4.949633 -46.630210 -17.906861 11.270238 -38.700207 -7.060314 -9.662996 -5.159022 -2.222098 -17.133413 -13.611290 21.156274 31.841335 29.170301 1.471742 61.758102 21.756628 36.670038 -44.387723 85.083190 -31.996657 -10.542785 21.275443 -30.560006 
-0.017587 -0.362680 0.239574 -136.560605 81.041097 21.401898 1.641549 -11.930918 -24.583402 -5.826946 -4.366595 24.552399 1.812071 12.731589 9.957345 0.000000 -0.000000 0.000000 0.462124 -2.576565 -14.280372 -3.752736 -14.101682 76.732467 12.444108 -5.545888 17.242998 0.000000 -0.000000 0.000000 -2.179971 9.936411 36.045408 8.107129 -6.701401 2.359145 1.160987 -0.946088 -2.071214 -18.996812 26.588618 -16.984203 -14.852271 -18.078331 17.786203 4.649027 -45.791309 -17.650147 11.215869 -38.937516 -6.432196 -9.438342 -6.074868 -1.549988 -16.389421 -14.120500 19.889923 31.829653 28.731160 1.247253 62.000894 21.618267 37.329115 -49.708736 85.155567 -36.343778 -9.650320 20.821708 -30.917204 
-0.017893 -0.361905 0.239728 -136.145741 80.768195 21.817326 1.618578 -12.107593 -24.333940 -5.785056 -4.179883 24.115721 1.942616 12.974006 10.233745 0.000000 -0.000000 0.000000 0.237346 -2.302359 -14.283510 -3.712315 -14.019723 76.780484 12.596163 -5.504436 17.425225 0.000000 -0.000000 0.000000 -2.448858 10.161642 36.299020 8.162108 -6.635129 2.340344 1.116715 -0.833901 -2.449570 -18.880514 26.443519 -16.501605 -14.639140 -18.006482 17.450580 4.416169 -45.483743 -17.488983 11.018980 -39.078623 -5.968579 -9.396756 -6.389331 -1.516976 -16.141122 -14.328537 19.468184 31.968094 28.509409 1.173662 62.019197 21.276982 37.586249 -55.123133 85.225435 -41.277647 -8.922119 20.734483 -30.769560 
-0.018825 -0.361966 0.239145 -135.816864 80.542092 22.087576 1.515656 -12.131976 -24.054645 -5.738032 -3.944908 23.820114 1.770856 13.028756 10.227580 0.000000 -0.000000 0.000000 -0.027393 -2.150977 -14.146972 -4.093892 -13.939350 76.783200 13.076901 -5.152209 17.761306 0.000000 -0.000000 0.000000 -2.551777 10.241238 36.434526 8.185083 -6.669284 2.525296 1.077596 -0.714837 -2.843968 -19.068415 26.225306 -16.077896 -14.536644 -17.898241 17.061610 4.157471 -45.221844 -17.416672 10.744180 -39.134784 -5.695697 -9.277570 -6.629942 -1.719910 -16.177698 -14.288523 19.494416 31.980089 28.336963 1.195219 62.127538 21.160825 37.764925 -56.828390 85.303691 -42.852798 -8.658271 20.705011 -30.560400 
-0.018425 -0.362078 0.239232 -135.434240 80.481421 22.488905 1.519788 -12.306353 -23.890563 -5.743595 -3.972393 23.369952 1.812221 13.308041 10.591096 0.000000 -0.000000 0.000000 -0.068279 -2.050550 -14.272620 -3.927581 -13.966404 76.863035 12.660723 -5.207233 17.609651 0.000000 -0.000000 0.000000 -2.710271 10.421783 36.190520 8.275675 -6.746733 3.287942 1.086759 -0.685383 -3.000000 -19.330754 26.528776 -16.422537 -14.498680 -18.267676 16.778971 4.281570 -45.234265 -17.406582 11.174033 -38.830547 -5.733762 -9.120102 -7.068914 -1.746850 -16.252591 -14.258145 18.967427 31.892068 28.409669 1.244468 62.020100 21.520671 37.815535 -58.223664 85.289989 -44.054069 -8.775972 20.463360 -30.859648 
-0.019055 -0.362203 0.238673 -135.508772 80.463974 22.400962 1.492355 -12.341952 -23.912695 -5.730256 -3.885792 23.479855 1.770117 13.330438 10.516561 0.000000 -0.000000 0.000000 -0.134070 -2.104802 -14.200005 -4.028893 -13.944172 76.890743 12.821139 -5.122609 17.636678 0.000000 -0.000000 0.000000 -2.665858 10.488576 36.031002 8.313765 -6.782187 3.509084 1.146075 -0.667391 -3.054305 -19.420939 26.466378 -16.241853 -14.505032 -18.316570 16.628067 4.215666 -45.294194 -17.384072 11.065951 -38.835555 -5.846537 -8.974132 -7.056508 -1.805309 -16.310469 -14.074983 19.145358 31.727110 28.380545 1.204032 61.989230 21.496989 37.732490 -58.639840 85.362256 -44.404569 -8.720973 20.427165 -30.878537 
-0.019114 -0.362385 0.238706 -135.188040 80.448172 22.735166 1.401455 -12.456081 -23.775866 -5.584935 -3.878389 23.225276 1.754524 13.398351 10.535367 0.000000 -0.000000 0.000000 -0.169328 -2.076775 -14.224883 -4.201718 -13.941831 76.917665 13.061660 -5.067954 17.749092 0.000000 -0.000000 0.000000 -2.739402 10.561707 36.259529 8.277972 -6.828036 3.271703 1.127256 -0.608940 -3.278921 -19.076120 26.144945 -15.733938 -14.239751 -18.289037 16.419249 4.338463 -45.306357 -17.357667 11.001554 -38.952951 -5.805996 -9.214690 -6.867341 -2.021090 -16.252765 -14.007137 19.481589 31.969555 28.394462 1.266535 61.962260 21.221921 37.760452 -59.633595 85.320349 -45.668351 -8.765051 20.532230 -30.688334 
-0.019448 -0.362972 0.238512 -135.095517 80.411851 22.851963 1.367712 -12.463267 -23.720225 -5.523245 -3.834912 23.107497 1.557688 13.378932 10.566633 0.000000 -0.000000 0.000000 -0.194596 -2.092442 -14.238012 -4.400402 -13.908609 76.978109 13.229195 -4.873927 17.770841 0.000000 -0.000000 0.000000 -2.789430 10.556128 36.297296 8.284437 -6.898718 3.327390 1.142765 -0.504637 -3.409691 -19.072583 25.841869 -15.295143 -14.180383 -18.603898 15.969512 4.719880 -45.023456 -17.441322 10.505236 -38.985966 -5.457212 -9.009472 -7.051460 -2.162661 -16.248344 -13.995295 19.098487 31.921082 28.324305 1.280218 62.002596 21.295576 37.705904 -56.810065 85.443757 -43.022080 -8.533945 20.650361 -30.376568 
